# xmcd
#
# Track frame offsets:
#	150
#	10950
#	17782
#	26722
#	38550
#	53802
#	62407
#	68770
#	81875
#	92680
#	103285
#	115190
#	127872
#	140455
#	145885
#	157567
#
# Disc length: 2224 seconds
#
# Revision: 2
# Processed by: cddbd v1.4b42PL0 Copyright (c) Steve Scherf et al.
# Submitted via: audiograbber 1.80
#
DISCID=c708ae10
DTITLE=The Hillbilly Family - Country& western Music
DYEAR=1900
DGENRE=
TTITLE0=Beans Bacon And Gravy
TTITLE1=Dickson
TTITLE2=Oh Susanna
TTITLE3=Clementine
TTITLE4=On Top Of Smoky
TTITLE5=The Yellow Rose Of Texas
TTITLE6=Flop Eared Mule
TTITLE7=Wondering
TTITLE8=Oh Freedom
TTITLE9=Red River Valley
TTITLE10=Worried Man
TTITLE11=Down In The Valley
TTITLE12=Tarried Song
TTITLE13=Wildwood Flower
TTITLE14=She's My Dream
TTITLE15=Cripple Creak
EXTD=
EXTT0=
EXTT1=
EXTT2=
EXTT3=
EXTT4=
EXTT5=
EXTT6=
EXTT7=
EXTT8=
EXTT9=
EXTT10=
EXTT11=
EXTT12=
EXTT13=
EXTT14=
EXTT15=
PLAYORDER=
